<svg width="24" height="24" viewBox="0 0 24 24" fill="none" xmlns="http://www.w3.org/2000/svg">
<g clip-path="url(#clip0_317_7455)">
<path d="M23.6508 12.4399L20.4894 7.4719C20.2141 7.03848 19.736 6.77637 19.2226 6.77637H4.77741C4.264 6.77637 3.78588 7.03848 3.51059 7.4719L0.349176 12.4399C0.120941 12.798 0 13.2135 0 13.638V23.1058C0 23.5994 0.400471 23.9999 0.894118 23.9999H23.1059C23.5995 23.9999 24 23.5994 24 23.1058V13.638C24 13.2135 23.8791 12.798 23.6508 12.4399ZM16.3402 10.0677C16.1868 10.2211 15.9751 10.3157 15.7412 10.3157H8.25882C7.79106 10.3157 7.41176 9.93637 7.41176 9.4686C7.41176 9.23472 7.50682 9.02296 7.65977 8.86954C7.81318 8.71613 8.02494 8.62154 8.25882 8.62154H15.7412C16.2089 8.62154 16.5882 9.00084 16.5882 9.4686C16.5882 9.70249 16.4932 9.91425 16.3402 10.0677Z" fill="url(#paint0_linear_317_7455)"/>
<path d="M24 13.638V23.1058C24 23.5994 23.5995 23.9999 23.1059 23.9999H12V10.3157H15.7412C15.9751 10.3157 16.1868 10.2211 16.3402 10.0677C16.4932 9.91425 16.5882 9.70249 16.5882 9.4686C16.5882 9.00084 16.2089 8.62154 15.7412 8.62154H12V6.77637H19.2226C19.736 6.77637 20.2141 7.03848 20.4894 7.4719L23.6508 12.4399C23.8791 12.798 24 13.2135 24 13.638Z" fill="url(#paint1_linear_317_7455)"/>
<path d="M6.65869 7.90625H17.341V11.2474H6.65869V7.90625Z" fill="url(#paint2_linear_317_7455)"/>
<path d="M23.6511 12.4399L20.4896 7.4719C20.2143 7.03848 19.7362 6.77637 19.2228 6.77637H4.77764C4.26423 6.77637 3.78611 7.03848 3.51082 7.4719L0.349403 12.4399C0.240227 12.6112 0.155992 12.7957 0.097168 12.9881H23.9033C23.8445 12.7957 23.7602 12.6112 23.6511 12.4399ZM16.3405 10.0677C16.1871 10.2211 15.9753 10.3157 15.7414 10.3157H8.25905C7.79129 10.3157 7.41199 9.93637 7.41199 9.4686C7.41199 9.23472 7.50705 9.02296 7.65999 8.86954C7.8134 8.71613 8.02517 8.62154 8.25905 8.62154H15.7414C16.2092 8.62154 16.5885 9.00084 16.5885 9.4686C16.5885 9.70249 16.4934 9.91425 16.3405 10.0677Z" fill="url(#paint3_linear_317_7455)"/>
<path d="M0 17.2334V23.1061C0 23.5999 0.400329 24.0002 0.894118 24.0002H23.1059C23.5997 24.0002 24 23.5999 24 23.1061V17.2334H0Z" fill="url(#paint4_linear_317_7455)"/>
<path d="M19.1296 14.7529L4.95312 22.3088L6.64433 24H23.1061C23.5997 24 24.0002 23.5995 24.0002 23.1059V19.6235L19.1296 14.7529Z" fill="url(#paint5_linear_317_7455)"/>
<path d="M23.9031 12.9881H12V10.3157H15.7412C15.9751 10.3157 16.1868 10.2211 16.3402 10.0677C16.4932 9.91425 16.5882 9.70249 16.5882 9.4686C16.5882 9.00084 16.2089 8.62154 15.7412 8.62154H12V6.77637H19.2226C19.736 6.77637 20.2141 7.03848 20.4894 7.4719L23.6508 12.4399C23.76 12.6112 23.8442 12.7957 23.9031 12.9881Z" fill="url(#paint6_linear_317_7455)"/>
<path d="M23.6506 12.4399L20.4892 7.4719C20.2139 7.03848 19.7358 6.77637 19.2224 6.77637H8.25861V8.62154H15.741C16.2087 8.62154 16.588 9.00084 16.588 9.4686C16.588 9.70249 16.493 9.91425 16.34 10.0677C16.1866 10.2211 15.9748 10.3157 15.741 10.3157H8.25861C8.15645 10.3157 8.05894 10.2966 7.96826 10.2635V10.2648L10.6916 12.9881H23.9028C23.844 12.7957 23.7598 12.6112 23.6506 12.4399Z" fill="url(#paint7_linear_317_7455)"/>
<path d="M16.0313 0.980471V10.2649C15.9405 10.2979 15.8426 10.3158 15.741 10.3158H8.25861C8.1565 10.3158 8.05909 10.2979 7.96826 10.2649V0.980471C7.96826 0.438965 8.40723 0 8.94873 0H15.0508C15.5924 0 16.0313 0.438965 16.0313 0.980471Z" fill="url(#paint8_linear_317_7455)"/>
<path d="M12 10.3158H15.7412C15.8428 10.3158 15.9407 10.2979 16.0315 10.2649V0.980471C16.0315 0.438965 15.5926 0 15.0511 0H12V10.3158Z" fill="url(#paint9_linear_317_7455)"/>
<path d="M7.96826 4.54883V10.2647C8.05909 10.2977 8.1565 10.3156 8.25861 10.3156H15.741C15.8426 10.3156 15.9405 10.2977 16.0313 10.2647V4.54883H7.96826Z" fill="url(#paint10_linear_317_7455)"/>
<path d="M16.0314 4.25391L13.8979 6.38741H12.8667L16.0314 9.55207V4.25391Z" fill="url(#paint11_linear_317_7455)"/>
<path d="M18.541 22.4941H5.45869C5.01686 22.4941 4.65869 22.136 4.65869 21.6941V15.2941C4.65869 14.8523 5.01686 14.4941 5.45869 14.4941H18.541C18.9829 14.4941 19.341 14.8523 19.341 15.2941V21.6941C19.341 22.136 18.9829 22.4941 18.541 22.4941Z" fill="url(#paint12_linear_317_7455)"/>
<path d="M4.65869 18.0703V21.6938C4.65869 22.1357 5.01686 22.4938 5.45869 22.4938H18.541C18.9829 22.4938 19.341 22.1357 19.341 21.6938V18.0703H4.65869Z" fill="url(#paint13_linear_317_7455)"/>
<path d="M12 22.4941H18.5412C18.983 22.4941 19.3412 22.136 19.3412 21.6941V15.2941C19.3412 14.8523 18.983 14.4941 18.5412 14.4941H12V22.4941Z" fill="url(#paint14_linear_317_7455)"/>
<path d="M8.97699 19.1816H8.46419C8.21431 19.1816 8.01172 19.3842 8.01172 19.6341C8.01172 19.884 8.21431 20.0866 8.46419 20.0866H8.97699C9.22687 20.0866 9.42946 19.884 9.42946 19.6341C9.42946 19.3842 9.22687 19.1816 8.97699 19.1816Z" fill="#08A9F1"/>
<path d="M15.5359 19.1816H10.5638C10.3139 19.1816 10.1113 19.3842 10.1113 19.6341C10.1113 19.884 10.3139 20.0866 10.5638 20.0866H15.5359C15.7858 20.0866 15.9884 19.884 15.9884 19.6341C15.9884 19.3842 15.7858 19.1816 15.5359 19.1816Z" fill="#08A9F1"/>
<path d="M13.72 21.2708C13.72 21.0209 13.5174 20.8184 13.2675 20.8184H10.5638C10.3139 20.8184 10.1113 21.0209 10.1113 21.2708C10.1113 21.5208 10.3139 21.7233 10.5638 21.7233H13.2675C13.5174 21.7233 13.72 21.5208 13.72 21.2708Z" fill="#08A9F1"/>
<path d="M15.5276 21.7233C15.7776 21.7233 15.9801 21.5207 15.9801 21.2708C15.9801 21.0209 15.7775 20.8184 15.5276 20.8184H14.6492C14.3994 20.8184 14.1968 21.0209 14.1968 21.2708C14.1968 21.5207 14.3994 21.7233 14.6492 21.7233H15.5276Z" fill="#08A9F1"/>
<path d="M13.8082 6.77619C13.4673 6.77619 13.1263 6.64641 12.8668 6.38688L11.6981 5.21826C11.4685 4.98852 11.4685 4.6161 11.6981 4.38636C11.9279 4.15662 12.3003 4.15662 12.5301 4.38636L13.6987 5.55497C13.7362 5.59248 13.7789 5.60033 13.8082 5.60033C13.8375 5.60033 13.8803 5.59248 13.9178 5.55497L17.1334 2.3393C17.3632 2.10956 17.7356 2.10956 17.9654 2.3393C18.195 2.56904 18.195 2.94146 17.9654 3.1712L14.7497 6.38688C14.4901 6.64641 14.1492 6.77619 13.8082 6.77619Z" fill="url(#paint15_linear_317_7455)"/>
<path d="M18.2873 18.0931H17.7237L17.1533 16.3449L16.583 18.0931H16.043L16.8462 15.7812H17.4875L18.2873 18.0931Z" fill="white"/>
<path d="M14.872 17.2325L14.5717 16.328L14.2713 17.2325H14.872ZM15.1589 18.0931L15.0273 17.6949H14.1194L13.9878 18.0931H13.4512L14.2679 15.7812H14.9092L15.7225 18.0931H15.1589Z" fill="white"/>
<path d="M12.4862 18.0931V17.1886H11.5075V18.0931H10.9844V15.7812H11.5075V16.7094H12.4862V15.7812H13.0094V18.0931H12.4862Z" fill="white"/>
<path d="M9.69236 17.2325L9.39198 16.328L9.09161 17.2325H9.69236ZM9.97923 18.0931L9.84761 17.6949H8.93973L8.80811 18.0931H8.27148L9.08823 15.7812H9.72948L10.5429 18.0931H9.97923Z" fill="white"/>
<path d="M6.95564 16.2204C6.56414 16.2204 6.26714 16.5376 6.26714 16.9325C6.26714 17.3375 6.56414 17.6514 6.97251 17.6514C7.25601 17.6514 7.47201 17.5063 7.60364 17.2768L8.01201 17.5603C7.78589 17.9248 7.45176 18.1408 6.97926 18.1408C6.26714 18.1408 5.73389 17.6109 5.73389 16.9325C5.73389 16.2609 6.26376 15.7344 6.96576 15.7344C7.42476 15.7344 7.78251 15.92 8.00189 16.3115L7.58676 16.5984C7.45176 16.3723 7.25264 16.2204 6.95564 16.2204Z" fill="white"/>
</g>
<defs>
<linearGradient id="paint0_linear_317_7455" x1="8.87139" y1="10.4534" x2="15.7887" y2="27.676" gradientUnits="userSpaceOnUse">
<stop stop-color="#FBC56D"/>
<stop offset="1" stop-color="#C5715A"/>
</linearGradient>
<linearGradient id="paint1_linear_317_7455" x1="22.5412" y1="15.3881" x2="25.2706" y2="15.3881" gradientUnits="userSpaceOnUse">
<stop stop-color="#8C3D27" stop-opacity="0"/>
<stop offset="1" stop-color="#8C3D27"/>
</linearGradient>
<linearGradient id="paint2_linear_317_7455" x1="11.9999" y1="10.416" x2="11.9999" y2="8.64554" gradientUnits="userSpaceOnUse">
<stop stop-color="#5A5A5A"/>
<stop offset="1" stop-color="#444444"/>
</linearGradient>
<linearGradient id="paint3_linear_317_7455" x1="8.97759" y1="6.01778" x2="13.9186" y2="17.382" gradientUnits="userSpaceOnUse">
<stop stop-color="#FBC56D"/>
<stop offset="1" stop-color="#C5715A"/>
</linearGradient>
<linearGradient id="paint4_linear_317_7455" x1="12" y1="21.7508" x2="12" y2="24.434" gradientUnits="userSpaceOnUse">
<stop stop-color="#8C3D27" stop-opacity="0"/>
<stop offset="1" stop-color="#8C3D27"/>
</linearGradient>
<linearGradient id="paint5_linear_317_7455" x1="15.6535" y1="23.5858" x2="12.5786" y2="16.7409" gradientUnits="userSpaceOnUse">
<stop stop-color="#8C3D27" stop-opacity="0"/>
<stop offset="1" stop-color="#8C3D27"/>
</linearGradient>
<linearGradient id="paint6_linear_317_7455" x1="19.3285" y1="9.16098" x2="22.2932" y2="7.60804" gradientUnits="userSpaceOnUse">
<stop stop-color="#8C3D27" stop-opacity="0"/>
<stop offset="1" stop-color="#8C3D27"/>
</linearGradient>
<linearGradient id="paint7_linear_317_7455" x1="15.374" y1="10.0525" x2="14.1034" y2="6.49952" gradientUnits="userSpaceOnUse">
<stop stop-color="#8C3D27" stop-opacity="0"/>
<stop offset="1" stop-color="#8C3D27"/>
</linearGradient>
<linearGradient id="paint8_linear_317_7455" x1="8.52831" y1="2.86127" x2="18.2224" y2="9.87304" gradientUnits="userSpaceOnUse">
<stop stop-color="#EAF9FA"/>
<stop offset="1" stop-color="#A8D3D8"/>
</linearGradient>
<linearGradient id="paint9_linear_317_7455" x1="14.9647" y1="5.15788" x2="16.6594" y2="5.15788" gradientUnits="userSpaceOnUse">
<stop stop-color="#7CA1B1" stop-opacity="0"/>
<stop offset="1" stop-color="#7CA1B1"/>
</linearGradient>
<linearGradient id="paint10_linear_317_7455" x1="11.9998" y1="7.84295" x2="11.9998" y2="10.4621" gradientUnits="userSpaceOnUse">
<stop stop-color="#7CA1B1" stop-opacity="0"/>
<stop offset="1" stop-color="#7CA1B1"/>
</linearGradient>
<linearGradient id="paint11_linear_317_7455" x1="15.6418" y1="7.62379" x2="14.732" y2="5.86694" gradientUnits="userSpaceOnUse">
<stop stop-color="#7CA1B1" stop-opacity="0"/>
<stop offset="1" stop-color="#7CA1B1"/>
</linearGradient>
<linearGradient id="paint12_linear_317_7455" x1="10.094" y1="16.5883" x2="20.097" y2="26.5913" gradientUnits="userSpaceOnUse">
<stop stop-color="#99E6FC"/>
<stop offset="1" stop-color="#01C0FA"/>
</linearGradient>
<linearGradient id="paint13_linear_317_7455" x1="11.9999" y1="20.8468" x2="11.9999" y2="22.9899" gradientUnits="userSpaceOnUse">
<stop stop-color="#017BAE" stop-opacity="0"/>
<stop offset="1" stop-color="#017BAE"/>
</linearGradient>
<linearGradient id="paint14_linear_317_7455" x1="17.9765" y1="18.4941" x2="20" y2="18.4941" gradientUnits="userSpaceOnUse">
<stop stop-color="#017BAE" stop-opacity="0"/>
<stop offset="1" stop-color="#017BAE"/>
</linearGradient>
<linearGradient id="paint15_linear_317_7455" x1="13.6613" y1="2.60829" x2="16.6262" y2="5.57327" gradientUnits="userSpaceOnUse">
<stop stop-color="#D1F19E"/>
<stop offset="1" stop-color="#8BC727"/>
</linearGradient>
<clipPath id="clip0_317_7455">
<rect width="24" height="24" fill="white"/>
</clipPath>
</defs>
</svg>
