<svg width="28" height="29" viewBox="0 0 28 29" fill="none" xmlns="http://www.w3.org/2000/svg">
<path d="M22.8491 13.1309H5.15149C4.50206 13.1309 3.97559 13.6573 3.97559 14.3068V22.3702C3.97559 23.0196 4.50206 23.5461 5.15149 23.5461H22.8491C23.4985 23.5461 24.025 23.0196 24.025 22.3702V14.3068C24.025 13.6573 23.4985 13.1309 22.8491 13.1309Z" fill="url(#paint0_linear_2004_7113)"/>
<path d="M24.0246 14.3067V16.5942H3.97559V14.3067C3.97555 14.1523 4.00593 13.9994 4.06499 13.8567C4.12405 13.714 4.21064 13.5844 4.31981 13.4752C4.42898 13.366 4.55859 13.2793 4.70124 13.2202C4.84389 13.1611 4.99679 13.1306 5.15121 13.1306H22.849C23.0034 13.1306 23.1563 13.1611 23.2989 13.2202C23.4416 13.2793 23.5712 13.366 23.6804 13.4752C23.7895 13.5844 23.8761 13.714 23.9352 13.8567C23.9942 13.9994 24.0246 14.1523 24.0246 14.3067Z" fill="url(#paint1_linear_2004_7113)"/>
<path d="M24.0246 14.3067V16.5942H3.97559V14.3067C3.97555 14.1523 4.00593 13.9994 4.06499 13.8567C4.12405 13.714 4.21064 13.5844 4.31981 13.4752C4.42898 13.366 4.55859 13.2793 4.70124 13.2202C4.84389 13.1611 4.99679 13.1306 5.15121 13.1306H22.849C23.0034 13.1306 23.1563 13.1611 23.2989 13.2202C23.4416 13.2793 23.5712 13.366 23.6804 13.4752C23.7895 13.5844 23.8761 13.714 23.9352 13.8567C23.9942 13.9994 24.0246 14.1523 24.0246 14.3067Z" fill="url(#paint2_linear_2004_7113)"/>
<path d="M24.0247 22.3702V19.8939L17.2616 13.1309H14.9882L11.875 16.2444L19.1769 23.5461H22.8488C23.1606 23.5461 23.4597 23.4222 23.6803 23.2016C23.9008 22.9811 24.0247 22.682 24.0247 22.3702Z" fill="url(#paint3_linear_2004_7113)"/>
<path d="M3.97559 16.5942H24.0246V20.0822H3.97559V16.5942Z" fill="url(#paint4_linear_2004_7113)"/>
<path d="M24.0246 20.0823V22.3702C24.0246 22.682 23.9007 22.981 23.6802 23.2015C23.4598 23.422 23.1607 23.5458 22.849 23.5459H5.15121C4.83942 23.5458 4.54041 23.422 4.31995 23.2015C4.09948 22.981 3.97561 22.682 3.97559 22.3702V20.0823H24.0246Z" fill="url(#paint5_linear_2004_7113)"/>
<path d="M8.6689 13.1309H5.15149C4.83962 13.1309 4.54053 13.2547 4.32 13.4753C4.09948 13.6958 3.97559 13.9949 3.97559 14.3068V22.3702C3.97559 22.682 4.09948 22.9811 4.32 23.2016C4.54053 23.4222 4.83962 23.5461 5.15149 23.5461H8.6689V13.1309Z" fill="url(#paint6_linear_2004_7113)"/>
<path d="M3.97559 14.3068V16.3888L11.1328 23.5461H15.9496L6.72382 14.3203L6.63326 14.3376L5.42655 13.1309H5.15149C4.83962 13.1309 4.54053 13.2547 4.32 13.4753C4.09948 13.6958 3.97559 13.9949 3.97559 14.3068Z" fill="url(#paint7_linear_2004_7113)"/>
<path d="M22.4037 24.1318H5.5968C5.01143 24.1318 4.45003 23.8992 4.03611 23.4853C3.62219 23.0714 3.38965 22.51 3.38965 21.9246V12.5449H24.6109V21.9246C24.6109 22.2145 24.5538 22.5015 24.4429 22.7693C24.332 23.037 24.1694 23.2804 23.9644 23.4853C23.7595 23.6903 23.5162 23.8528 23.2484 23.9638C22.9806 24.0747 22.6936 24.1318 22.4037 24.1318ZM5.5968 13.7166C5.32233 13.7169 5.05918 13.826 4.86509 14.0201C4.67101 14.2142 4.56183 14.4774 4.56152 14.7518V21.9246C4.56183 22.1991 4.67101 22.4622 4.86509 22.6563C5.05918 22.8504 5.32233 22.9596 5.5968 22.9599H22.4037C22.6782 22.9596 22.9414 22.8504 23.1355 22.6563C23.3295 22.4622 23.4387 22.1991 23.439 21.9246V14.7518C23.4387 14.4774 23.3295 14.2142 23.1355 14.0201C22.9414 13.826 22.6782 13.7169 22.4037 13.7166H5.5968Z" fill="url(#paint8_linear_2004_7113)"/>
<path d="M23.4388 17.8708V21.9247C23.4387 22.0873 23.4004 22.2475 23.3269 22.3925C23.2534 22.5375 23.1468 22.6631 23.0156 22.7591V24.0453C23.4754 23.9125 23.8795 23.6339 24.1672 23.2514C24.4549 22.869 24.6105 22.4034 24.6106 21.9249V17.8708H23.4388Z" fill="url(#paint9_linear_2004_7113)"/>
<path d="M3.38965 14.2164V15.8028L4.56152 16.9747V14.7521C4.56183 14.4776 4.67101 14.2145 4.86509 14.0204C5.05918 13.8263 5.32233 13.7171 5.5968 13.7168H6.01249L4.84062 12.5449H4.5027C4.45505 12.8894 4.3302 13.2186 4.13746 13.508C3.94473 13.7975 3.68909 14.0396 3.38965 14.2164Z" fill="url(#paint10_linear_2004_7113)"/>
<path d="M23.439 20.0823V21.9248C23.4387 22.1993 23.3295 22.4624 23.1355 22.6565C22.9414 22.8506 22.6782 22.9598 22.4037 22.9601H5.5968C5.32233 22.9598 5.05918 22.8506 4.86509 22.6565C4.67101 22.4624 4.56183 22.1993 4.56152 21.9248V20.0823H3.38965V21.9248C3.39031 22.51 3.62306 23.071 4.03684 23.4848C4.45062 23.8985 5.01163 24.1313 5.5968 24.1319H22.4037C22.9889 24.1313 23.5499 23.8985 23.9637 23.4847C24.3775 23.071 24.6102 22.51 24.6109 21.9248V20.0823H23.439Z" fill="url(#paint11_linear_2004_7113)"/>
<path d="M24.1 12.5449H3.90039V9.63205C3.90039 8.11499 4.84375 6.7784 6.21939 6.34635C10.5402 4.98937 17.46 4.98937 21.781 6.34635C23.1566 6.7784 24.1 8.11499 24.1 9.63229V12.5449Z" fill="url(#paint12_linear_2004_7113)"/>
<path d="M24.1 9.63198C24.0999 9.36199 24.0697 9.09286 24.0097 8.82962C23.9285 8.8044 23.8463 8.78068 23.7625 8.75968C18.3412 7.4027 9.65912 7.4027 4.23789 8.75968C4.15403 8.78068 4.07186 8.8044 3.99063 8.82962C3.93067 9.09286 3.9004 9.36199 3.90039 9.63198V12.5448H24.1V9.63198Z" fill="url(#paint13_linear_2004_7113)"/>
<path d="M24.1 9.63198C24.0999 9.36199 24.0697 9.09286 24.0097 8.82962C23.9285 8.8044 23.8463 8.78068 23.7625 8.75968C18.3412 7.4027 9.65912 7.4027 4.23789 8.75968C4.15403 8.78068 4.07186 8.8044 3.99063 8.82962C3.93067 9.09286 3.9004 9.36199 3.90039 9.63198V12.4979H24.1V9.63198Z" fill="url(#paint14_linear_2004_7113)"/>
<path d="M20.3594 12.498V5.9685C18.4553 5.54194 16.2278 5.32861 14 5.32861V12.498H20.3594Z" fill="url(#paint15_linear_2004_7113)"/>
<path d="M12.6949 5.95728H7.69061C7.1747 6.07146 6.68205 6.20103 6.21939 6.34634C4.84375 6.77838 3.90039 8.11498 3.90039 9.63228V12.4982H19.2828L12.6949 5.95728Z" fill="url(#paint16_linear_2004_7113)"/>
<path d="M4.49674 7.6521C4.10627 8.23845 3.89872 8.92754 3.9004 9.63201V12.4979H9.38946L4.49674 7.6521Z" fill="url(#paint17_linear_2004_7113)"/>
<path d="M24.6105 9.63193V12.5447H3.38965V9.63193C3.38935 8.93553 3.60149 8.2556 3.99776 7.68292C4.03743 7.62575 4.09481 7.58322 4.16105 7.56189C4.22729 7.54056 4.2987 7.54162 4.36428 7.5649C4.42986 7.58818 4.48595 7.6324 4.52391 7.69072C4.56187 7.74904 4.57958 7.81823 4.57432 7.88762C4.56585 7.99253 4.56157 8.0985 4.56148 8.20553V10.2674C4.56148 10.3792 4.58349 10.4898 4.62627 10.5931C4.66904 10.6963 4.73174 10.7902 4.81077 10.8692C4.88981 10.9482 4.98363 11.0109 5.08689 11.0536C5.19016 11.0964 5.30083 11.1184 5.41259 11.1183H22.5876C22.8133 11.1183 23.0297 11.0287 23.1893 10.8691C23.3489 10.7095 23.4385 10.4931 23.4385 10.2674V8.20553C23.4385 8.09856 23.4342 7.99259 23.4257 7.88762C23.4204 7.81823 23.4381 7.74904 23.4761 7.69072C23.514 7.6324 23.5701 7.58818 23.6357 7.5649C23.7013 7.54162 23.7727 7.54056 23.8389 7.56189C23.9052 7.58322 23.9626 7.62575 24.0022 7.68292C24.3986 8.25557 24.6108 8.93551 24.6105 9.63193Z" fill="url(#paint18_linear_2004_7113)"/>
<path d="M23.4386 10.2675C23.4386 10.3792 23.4166 10.4899 23.3739 10.5931C23.3311 10.6964 23.2684 10.7902 23.1894 10.8692C23.1103 10.9482 23.0165 11.0109 22.9133 11.0536C22.81 11.0964 22.6993 11.1184 22.5876 11.1184H5.41259C5.18691 11.1184 4.97047 11.0287 4.81089 10.8691C4.65131 10.7096 4.56166 10.4931 4.56166 10.2675V8.91333H3.46624C3.41544 9.14951 3.38977 9.39039 3.38965 9.63197V12.5448H24.6105V9.63197C24.6104 9.39039 24.5847 9.14951 24.5339 8.91333H23.4386V10.2675Z" fill="url(#paint19_linear_2004_7113)"/>
<path d="M17.8476 13.7168L16.125 11.9941L14.4023 13.7168H17.8476Z" fill="url(#paint20_linear_2004_7113)"/>
<path d="M16.1221 11.9945C14.9487 10.821 13.0462 10.821 11.8727 11.9945C10.6993 13.1679 10.6993 15.0704 11.8727 16.2438C13.0462 17.4172 14.9487 17.4172 16.1221 16.2438C17.2955 15.0704 17.2955 13.1679 16.1221 11.9945Z" fill="url(#paint21_linear_2004_7113)"/>
<path d="M14.2652 5.55181L15.2283 11.1299C15.2592 11.3089 15.2507 11.4925 15.2032 11.6678C15.1557 11.8431 15.0705 12.0059 14.9535 12.1448C14.8365 12.2838 14.6906 12.3954 14.5259 12.4721C14.3613 12.5487 14.1818 12.5884 14.0002 12.5884C13.8186 12.5884 13.6392 12.5487 13.4745 12.4721C13.3098 12.3954 13.1639 12.2838 13.0469 12.1449C12.9299 12.0059 12.8447 11.8431 12.7972 11.6678C12.7498 11.4925 12.7412 11.309 12.7721 11.13L13.7352 5.55186C13.7865 5.25421 14.2139 5.25421 14.2652 5.55181Z" fill="url(#paint22_linear_2004_7113)"/>
<path d="M14.265 5.55182C14.2135 5.25421 13.7863 5.25421 13.735 5.55182L12.9219 10.2613L14.8824 12.2217C15.0234 12.0809 15.1285 11.9081 15.1887 11.7181C15.2488 11.5281 15.2624 11.3264 15.2282 11.13L14.265 5.55182Z" fill="url(#paint23_linear_2004_7113)"/>
<path d="M13.2764 8.20523L13.7345 5.55182C13.786 5.25421 14.2132 5.25421 14.2646 5.55182L15.0246 9.95338L13.2764 8.20523Z" fill="url(#paint24_linear_2004_7113)"/>
<path d="M13.6318 6.1492L13.735 5.55182C13.7865 5.25421 14.2137 5.25421 14.2651 5.55182L14.5219 7.03926L13.6318 6.1492Z" fill="url(#paint25_linear_2004_7113)"/>
<path d="M14.2627 16.2077C14.2237 16.2077 14.1847 16.2044 14.1463 16.1977C14.1215 16.1933 14.0971 16.1876 14.073 16.1804C14.0253 16.1665 13.9747 16.1665 13.927 16.1804C13.9029 16.1876 13.8785 16.1933 13.8537 16.1977C13.8153 16.2044 13.7763 16.2077 13.7373 16.2077C13.5778 16.204 13.4231 16.1521 13.2937 16.0587C13.1643 15.9654 13.0662 15.835 13.0123 15.6848C12.9789 15.5924 12.9674 15.4935 12.979 15.396C12.9905 15.2984 13.0247 15.2049 13.0788 15.1229C13.077 15.0125 13.0537 14.9034 13.0101 14.802C12.8701 14.4805 12.7795 14.1326 12.7795 13.916C12.7795 13.9037 12.7799 13.8912 12.7804 13.8785C12.6677 13.78 12.5832 13.6533 12.5354 13.5113C12.4877 13.3694 12.4784 13.2174 12.5086 13.0707C12.5177 13.0184 12.5396 12.969 12.5723 12.9272C12.6051 12.8853 12.6477 12.8522 12.6964 12.8307C12.7451 12.8093 12.7983 12.8003 12.8513 12.8044C12.9043 12.8085 12.9555 12.8256 13.0002 12.8543C13.0641 12.8898 13.1318 12.9179 13.202 12.938C13.2192 12.9136 13.238 12.8903 13.2583 12.8684C13.2857 12.8389 13.3155 12.8116 13.3473 12.787C13.3987 12.747 13.4543 12.7128 13.5132 12.685C13.5591 12.631 13.6132 12.5846 13.6735 12.5474L13.7224 12.2638C13.7335 12.1982 13.7674 12.1387 13.8182 12.0958C13.869 12.0529 13.9333 12.0293 13.9998 12.0293C14.0663 12.0293 14.1306 12.0529 14.1814 12.0958C14.2321 12.1387 14.2661 12.1982 14.2771 12.2638L14.3245 12.5386C14.4041 12.5876 14.4721 12.6533 14.5238 12.7312C14.5754 12.8091 14.6095 12.8973 14.6238 12.9896C14.6367 12.9859 14.6503 12.982 14.6644 12.9779C14.7669 12.9484 14.9218 12.9039 14.9994 12.8544C15.0442 12.8257 15.0954 12.8085 15.1484 12.8044C15.2014 12.8003 15.2546 12.8094 15.3033 12.8308C15.352 12.8522 15.3946 12.8854 15.4274 12.9273C15.4601 12.9691 15.482 13.0185 15.4911 13.0709C15.5213 13.2175 15.512 13.3695 15.4642 13.5114C15.4165 13.6533 15.3319 13.78 15.2193 13.8786C15.2198 13.8911 15.2201 13.9035 15.2201 13.9161C15.2201 14.1329 15.1296 14.4807 14.9896 14.802C14.946 14.9035 14.9227 15.0125 14.9209 15.123C14.975 15.205 15.0092 15.2985 15.0207 15.3961C15.0323 15.4936 15.0208 15.5925 14.9874 15.6849C14.9335 15.8351 14.8354 15.9655 14.706 16.0588C14.5766 16.1522 14.422 16.2041 14.2624 16.2078L14.2627 16.2077Z" fill="url(#paint26_linear_2004_7113)"/>
<path d="M11.875 16.2442C12.4386 16.8078 13.203 17.1244 14 17.1244C14.797 17.1244 15.5614 16.8078 16.125 16.2442C16.4478 15.9218 16.6929 15.53 16.8414 15.0985C16.99 14.6671 17.0382 14.2075 16.9823 13.7546H11.0177C10.9618 14.2075 11.01 14.6671 11.1585 15.0985C11.3071 15.53 11.5521 15.9218 11.875 16.2442Z" fill="url(#paint27_linear_2004_7113)"/>
<path d="M15.2745 13.1084C15.2716 13.0918 15.2646 13.0762 15.2542 13.0629C15.2438 13.0497 15.2303 13.0392 15.2148 13.0324C15.1994 13.0257 15.1825 13.0229 15.1657 13.0242C15.1489 13.0256 15.1327 13.0311 15.1185 13.0403C14.9771 13.1304 14.7231 13.186 14.6178 13.2225C14.589 13.2327 14.5632 13.2499 14.5428 13.2727C14.4998 13.2514 14.4555 13.2329 14.4101 13.2173C14.4071 13.2132 14.4039 13.2091 14.4007 13.2051C14.4273 13.1031 14.4157 12.9948 14.368 12.9007C14.3203 12.8067 14.2398 12.7333 14.1418 12.6945C14.1371 12.6928 14.1324 12.6913 14.1274 12.6898L14.0603 12.3013C14.0579 12.2871 14.0506 12.2742 14.0395 12.2649C14.0285 12.2556 14.0146 12.2505 14.0002 12.2505C13.9858 12.2505 13.9718 12.2556 13.9608 12.2649C13.9498 12.2742 13.9425 12.2871 13.9401 12.3013L13.872 12.6956C13.783 12.728 13.7063 12.7874 13.6526 12.8655C13.5916 12.8886 13.5344 12.9209 13.4829 12.9611C13.4606 12.9783 13.4397 12.9974 13.4205 13.0181C13.3719 13.0703 13.3368 13.1335 13.3182 13.2024C13.1951 13.1663 12.9997 13.1152 12.8822 13.0403C12.8681 13.0311 12.8519 13.0256 12.835 13.0242C12.8182 13.0228 12.8013 13.0257 12.7859 13.0324C12.7704 13.0392 12.7569 13.0496 12.7465 13.0629C12.736 13.0762 12.7291 13.0918 12.7262 13.1084C12.6996 13.237 12.7131 13.3706 12.765 13.4913C12.8168 13.6119 12.9044 13.7137 13.016 13.7829C13.0059 13.8266 13.0008 13.8712 13.0007 13.916C13.0007 14.0941 13.0799 14.4089 13.2128 14.7141C13.2791 14.8678 13.3084 15.0349 13.2982 15.202C13.2483 15.2566 13.2148 15.3241 13.2012 15.3968C13.1876 15.4694 13.1947 15.5445 13.2215 15.6134C13.3058 15.8589 13.5721 16.0233 13.8164 15.9807C13.8327 15.9778 13.8489 15.9741 13.8647 15.9693C13.9535 15.9431 14.0479 15.9431 14.1366 15.9693C14.1525 15.9741 14.1686 15.9778 14.1849 15.9807C14.4292 16.0233 14.6956 15.8588 14.7799 15.6134C14.8067 15.5445 14.8137 15.4694 14.8001 15.3968C14.7866 15.3241 14.753 15.2566 14.7031 15.202C14.693 15.0349 14.7222 14.8678 14.7885 14.7141C14.9214 14.4089 15.0006 14.094 15.0006 13.916C15.0006 13.8712 14.9954 13.8266 14.9853 13.7829C15.0968 13.7137 15.1843 13.6118 15.236 13.4912C15.2877 13.3705 15.3012 13.2369 15.2745 13.1084Z" fill="url(#paint28_linear_2004_7113)"/>
<path d="M9.11761 9.28132C8.43773 7.94376 7.32235 6.8778 5.95537 6.2592C5.92149 6.24372 5.89277 6.21883 5.87264 6.18749C5.8525 6.15615 5.8418 6.11968 5.8418 6.08243C5.8418 6.04518 5.8525 6.00872 5.87264 5.97738C5.89277 5.94604 5.92149 5.92115 5.95537 5.90567C7.32235 5.28706 8.43773 4.22111 9.11761 2.88354C9.13381 2.85153 9.15857 2.82463 9.18914 2.80584C9.2197 2.78705 9.25488 2.7771 9.29076 2.7771C9.32664 2.7771 9.36182 2.78705 9.39239 2.80584C9.42296 2.82463 9.44772 2.85153 9.46392 2.88354C10.1439 4.22115 11.2593 5.28711 12.6264 5.90567C12.6603 5.92115 12.689 5.94604 12.7091 5.97738C12.7293 6.00872 12.74 6.04518 12.74 6.08243C12.74 6.11968 12.7293 6.15615 12.7091 6.18749C12.689 6.21883 12.6603 6.24372 12.6264 6.2592C11.2594 6.8778 10.144 7.94376 9.46415 9.28132C9.44798 9.3134 9.42321 9.34036 9.39262 9.35919C9.36203 9.37803 9.32681 9.388 9.29088 9.388C9.25495 9.388 9.21973 9.37803 9.18914 9.35919C9.15855 9.34036 9.13378 9.3134 9.11761 9.28132Z" fill="url(#paint29_linear_2004_7113)"/>
<path d="M4.28754 16.6053C3.82256 15.6903 3.05965 14.9612 2.12463 14.5381C2.10144 14.5275 2.08178 14.5105 2.06799 14.4891C2.05421 14.4676 2.04688 14.4427 2.04688 14.4172C2.04688 14.3917 2.05421 14.3667 2.06799 14.3453C2.08178 14.3239 2.10144 14.3068 2.12463 14.2963C3.05966 13.8731 3.82258 13.144 4.28759 12.2291C4.29867 12.2072 4.3156 12.1888 4.33651 12.1759C4.35743 12.1631 4.38149 12.1562 4.40604 12.1563C4.43058 12.1562 4.45465 12.1631 4.47556 12.1759C4.49647 12.1888 4.51341 12.2072 4.52449 12.2291C4.98956 13.144 5.7525 13.8731 6.68754 14.2962C6.71073 14.3067 6.73039 14.3238 6.74418 14.3452C6.75797 14.3666 6.7653 14.3916 6.7653 14.4171C6.7653 14.4426 6.75797 14.4675 6.74418 14.489C6.73039 14.5104 6.71073 14.5274 6.68754 14.538C5.75247 14.9611 4.98952 15.6903 4.52449 16.6053C4.51341 16.6272 4.49648 16.6456 4.47556 16.6585C4.45464 16.6713 4.43057 16.6781 4.40601 16.6781C4.38146 16.6781 4.35739 16.6713 4.33647 16.6585C4.31555 16.6456 4.29861 16.6272 4.28754 16.6053Z" fill="url(#paint30_linear_2004_7113)"/>
<path d="M23.4752 19.6873C23.0101 18.7724 22.2472 18.0432 21.3121 17.6201C21.2889 17.6096 21.2693 17.5925 21.2555 17.5711C21.2417 17.5497 21.2344 17.5247 21.2344 17.4992C21.2344 17.4737 21.2417 17.4488 21.2555 17.4273C21.2693 17.4059 21.2889 17.3889 21.3121 17.3783C22.2472 16.9552 23.0101 16.226 23.4751 15.3111C23.4862 15.2892 23.5031 15.2708 23.524 15.2579C23.545 15.2451 23.569 15.2383 23.5936 15.2383C23.6181 15.2383 23.6422 15.2451 23.6631 15.2579C23.684 15.2708 23.7009 15.2892 23.712 15.3111C24.177 16.226 24.94 16.9552 25.875 17.3783C25.8982 17.3889 25.9178 17.4059 25.9316 17.4273C25.9454 17.4488 25.9527 17.4737 25.9527 17.4992C25.9527 17.5247 25.9454 17.5497 25.9316 17.5711C25.9178 17.5925 25.8982 17.6096 25.875 17.6201C24.94 18.0433 24.177 18.7724 23.712 19.6873C23.7009 19.7092 23.684 19.7276 23.6631 19.7404C23.6422 19.7533 23.6181 19.7601 23.5936 19.7601C23.569 19.7601 23.545 19.7533 23.5241 19.7404C23.5032 19.7276 23.4863 19.7092 23.4752 19.6873Z" fill="url(#paint31_linear_2004_7113)"/>
<path d="M14.9653 26.6106C14.5003 25.6957 13.7373 24.9666 12.8023 24.5435C12.7791 24.5329 12.7595 24.5158 12.7457 24.4944C12.7319 24.473 12.7246 24.448 12.7246 24.4225C12.7246 24.3971 12.7319 24.3721 12.7457 24.3507C12.7595 24.3292 12.7791 24.3122 12.8023 24.3016C13.7373 23.8785 14.5003 23.1494 14.9653 22.2344C14.9764 22.2125 14.9933 22.1941 15.0142 22.1813C15.0351 22.1684 15.0592 22.1616 15.0838 22.1616C15.1083 22.1616 15.1324 22.1684 15.1533 22.1813C15.1742 22.1941 15.1911 22.2125 15.2022 22.2344C15.6672 23.1494 16.4301 23.8785 17.3652 24.3016C17.3884 24.3122 17.408 24.3292 17.4218 24.3507C17.4356 24.3721 17.4429 24.3971 17.4429 24.4225C17.4429 24.448 17.4356 24.473 17.4218 24.4944C17.408 24.5159 17.3884 24.5329 17.3652 24.5435C16.4301 24.9666 15.6672 25.6957 15.2022 26.6106C15.1911 26.6325 15.1742 26.6509 15.1533 26.6638C15.1324 26.6767 15.1083 26.6835 15.0838 26.6835C15.0592 26.6835 15.0351 26.6767 15.0142 26.6638C14.9933 26.6509 14.9764 26.6325 14.9653 26.6106Z" fill="url(#paint32_linear_2004_7113)"/>
<defs>
<linearGradient id="paint0_linear_2004_7113" x1="12.1324" y1="15.2032" x2="17.4742" y2="24.1696" gradientUnits="userSpaceOnUse">
<stop stop-color="#FFDFCF"/>
<stop offset="1" stop-color="#FFA78F"/>
</linearGradient>
<linearGradient id="paint1_linear_2004_7113" x1="14.2976" y1="16.2471" x2="15.417" y2="19.6052" gradientUnits="userSpaceOnUse">
<stop stop-color="#F89580" stop-opacity="0"/>
<stop offset="0.997" stop-color="#C5715A"/>
</linearGradient>
<linearGradient id="paint2_linear_2004_7113" x1="14.0001" y1="15.008" x2="14.0001" y2="13.1323" gradientUnits="userSpaceOnUse">
<stop stop-color="#F89580" stop-opacity="0"/>
<stop offset="0.997" stop-color="#C5715A"/>
</linearGradient>
<linearGradient id="paint3_linear_2004_7113" x1="18.7743" y1="18.8935" x2="14.2156" y2="14.3348" gradientUnits="userSpaceOnUse">
<stop stop-color="#F89580" stop-opacity="0"/>
<stop offset="0.997" stop-color="#C5715A"/>
</linearGradient>
<linearGradient id="paint4_linear_2004_7113" x1="13.9142" y1="17.7673" x2="14.6076" y2="22.3739" gradientUnits="userSpaceOnUse">
<stop stop-color="#F89580" stop-opacity="0"/>
<stop offset="0.997" stop-color="#C5715A"/>
</linearGradient>
<linearGradient id="paint5_linear_2004_7113" x1="13.9722" y1="21.1109" x2="14.7192" y2="25.5427" gradientUnits="userSpaceOnUse">
<stop stop-color="#F89580" stop-opacity="0"/>
<stop offset="0.997" stop-color="#C5715A"/>
</linearGradient>
<linearGradient id="paint6_linear_2004_7113" x1="6.84077" y1="18.3384" x2="3.08782" y2="18.3384" gradientUnits="userSpaceOnUse">
<stop stop-color="#F89580" stop-opacity="0"/>
<stop offset="0.103" stop-color="#F6947E" stop-opacity="0.04"/>
<stop offset="0.261" stop-color="#F0907A" stop-opacity="0.149"/>
<stop offset="0.454" stop-color="#E78974" stop-opacity="0.327"/>
<stop offset="0.676" stop-color="#DB806A" stop-opacity="0.576"/>
<stop offset="0.918" stop-color="#CB755E" stop-opacity="0.889"/>
<stop offset="0.997" stop-color="#C5715A"/>
</linearGradient>
<linearGradient id="paint7_linear_2004_7113" x1="8.74179" y1="18.7466" x2="3.27766" y2="13.2825" gradientUnits="userSpaceOnUse">
<stop stop-color="#F89580" stop-opacity="0"/>
<stop offset="0.997" stop-color="#C5715A"/>
</linearGradient>
<linearGradient id="paint8_linear_2004_7113" x1="10.0014" y1="13.6929" x2="20.1465" y2="23.838" gradientUnits="userSpaceOnUse">
<stop stop-color="#FEF0AE"/>
<stop offset="1" stop-color="#FED402"/>
</linearGradient>
<linearGradient id="paint9_linear_2004_7113" x1="24.1829" y1="21.3669" x2="23.1516" y2="20.2263" gradientUnits="userSpaceOnUse">
<stop stop-color="#FEF0AE" stop-opacity="0"/>
<stop offset="1" stop-color="#FE9738"/>
</linearGradient>
<linearGradient id="paint10_linear_2004_7113" x1="6.76076" y1="16.8195" x2="4.17316" y2="14.2319" gradientUnits="userSpaceOnUse">
<stop stop-color="#FEF0AE" stop-opacity="0"/>
<stop offset="1" stop-color="#FE9738"/>
</linearGradient>
<linearGradient id="paint11_linear_2004_7113" x1="14.0003" y1="21.7581" x2="14.0003" y2="24.0202" gradientUnits="userSpaceOnUse">
<stop stop-color="#FEF0AE" stop-opacity="0"/>
<stop offset="1" stop-color="#FE9738"/>
</linearGradient>
<linearGradient id="paint12_linear_2004_7113" x1="13.2549" y1="6.01448" x2="14.0306" y2="11.1536" gradientUnits="userSpaceOnUse">
<stop stop-color="#FFDFCF"/>
<stop offset="1" stop-color="#FFA78F"/>
</linearGradient>
<linearGradient id="paint13_linear_2004_7113" x1="13.5473" y1="7.95287" x2="14.1347" y2="11.8445" gradientUnits="userSpaceOnUse">
<stop stop-color="#FFDFCF"/>
<stop offset="1" stop-color="#FFA78F"/>
</linearGradient>
<linearGradient id="paint14_linear_2004_7113" x1="14.0002" y1="9.60249" x2="14.0002" y2="11.6177" gradientUnits="userSpaceOnUse">
<stop stop-color="#F89580" stop-opacity="0"/>
<stop offset="0.997" stop-color="#C5715A"/>
</linearGradient>
<linearGradient id="paint15_linear_2004_7113" x1="17.3573" y1="8.87513" x2="14.4548" y2="9.49932" gradientUnits="userSpaceOnUse">
<stop stop-color="#F89580" stop-opacity="0"/>
<stop offset="0.997" stop-color="#C5715A"/>
</linearGradient>
<linearGradient id="paint16_linear_2004_7113" x1="11.5914" y1="9.1062" x2="11.5914" y2="3.91048" gradientUnits="userSpaceOnUse">
<stop stop-color="#F89580" stop-opacity="0"/>
<stop offset="0.997" stop-color="#C5715A"/>
</linearGradient>
<linearGradient id="paint17_linear_2004_7113" x1="6.54706" y1="10.075" x2="3.63931" y2="10.075" gradientUnits="userSpaceOnUse">
<stop stop-color="#F89580" stop-opacity="0"/>
<stop offset="0.997" stop-color="#C5715A"/>
</linearGradient>
<linearGradient id="paint18_linear_2004_7113" x1="13.3476" y1="9.03161" x2="15.4279" y2="14.6012" gradientUnits="userSpaceOnUse">
<stop stop-color="#FEF0AE"/>
<stop offset="1" stop-color="#FED402"/>
</linearGradient>
<linearGradient id="paint19_linear_2004_7113" x1="14.0001" y1="11.3318" x2="14.0001" y2="13.005" gradientUnits="userSpaceOnUse">
<stop stop-color="#FEF0AE" stop-opacity="0"/>
<stop offset="1" stop-color="#FE9738"/>
</linearGradient>
<linearGradient id="paint20_linear_2004_7113" x1="21.8271" y1="19.4188" x2="15.4978" y2="13.0896" gradientUnits="userSpaceOnUse">
<stop stop-color="#FEF0AE" stop-opacity="0"/>
<stop offset="1" stop-color="#FE9738"/>
</linearGradient>
<linearGradient id="paint21_linear_2004_7113" x1="12.865" y1="12.9868" x2="15.455" y2="15.5769" gradientUnits="userSpaceOnUse">
<stop stop-color="#FEF0AE"/>
<stop offset="1" stop-color="#FED402"/>
</linearGradient>
<linearGradient id="paint22_linear_2004_7113" x1="13.5945" y1="8.94849" x2="14.8197" y2="8.94846" gradientUnits="userSpaceOnUse">
<stop stop-color="#FEF0AE"/>
<stop offset="1" stop-color="#FED402"/>
</linearGradient>
<linearGradient id="paint23_linear_2004_7113" x1="14.0455" y1="8.35752" x2="17.817" y2="12.4034" gradientUnits="userSpaceOnUse">
<stop stop-color="#FEF0AE" stop-opacity="0"/>
<stop offset="1" stop-color="#FE9738"/>
</linearGradient>
<linearGradient id="paint24_linear_2004_7113" x1="13.9573" y1="7.25984" x2="16.042" y2="8.52034" gradientUnits="userSpaceOnUse">
<stop stop-color="#FEF0AE" stop-opacity="0"/>
<stop offset="1" stop-color="#FE9738"/>
</linearGradient>
<linearGradient id="paint25_linear_2004_7113" x1="13.893" y1="6.03229" x2="14.596" y2="6.27471" gradientUnits="userSpaceOnUse">
<stop stop-color="#FEF0AE" stop-opacity="0"/>
<stop offset="1" stop-color="#FE9738"/>
</linearGradient>
<linearGradient id="paint26_linear_2004_7113" x1="15.5365" y1="15.674" x2="12.1902" y2="12.3277" gradientUnits="userSpaceOnUse">
<stop stop-color="#FEF0AE"/>
<stop offset="1" stop-color="#FED402"/>
</linearGradient>
<linearGradient id="paint27_linear_2004_7113" x1="14" y1="14.4255" x2="14" y2="16.62" gradientUnits="userSpaceOnUse">
<stop stop-color="#FEF0AE" stop-opacity="0"/>
<stop offset="1" stop-color="#FE9738"/>
</linearGradient>
<linearGradient id="paint28_linear_2004_7113" x1="13.3807" y1="13.8664" x2="14.4609" y2="14.5057" gradientUnits="userSpaceOnUse">
<stop stop-color="#5A5A5A"/>
<stop offset="1" stop-color="#444444"/>
</linearGradient>
<linearGradient id="paint29_linear_2004_7113" x1="9.29076" y1="3.82231" x2="9.29076" y2="11.0597" gradientUnits="userSpaceOnUse">
<stop stop-color="#E5CAF3"/>
<stop offset="1" stop-color="#BD80E1"/>
</linearGradient>
<linearGradient id="paint30_linear_2004_7113" x1="4.40604" y1="12.8711" x2="4.40604" y2="17.8215" gradientUnits="userSpaceOnUse">
<stop stop-color="#FEAEE1"/>
<stop offset="1" stop-color="#FE5694"/>
</linearGradient>
<linearGradient id="paint31_linear_2004_7113" x1="23.5936" y1="15.9533" x2="23.5936" y2="20.9037" gradientUnits="userSpaceOnUse">
<stop stop-color="#B3DAFE"/>
<stop offset="1" stop-color="#7BACDF"/>
</linearGradient>
<linearGradient id="paint32_linear_2004_7113" x1="15.0838" y1="22.8766" x2="15.0838" y2="27.827" gradientUnits="userSpaceOnUse">
<stop stop-color="#AEFFD1"/>
<stop offset="1" stop-color="#22B27F"/>
</linearGradient>
</defs>
</svg>
